<svg width="659" height="466" viewBox="0 0 659 466" fill="none" xmlns="http://www.w3.org/2000/svg">
<g id="Group 2" filter="url(#filter0_d)">
<g id="Group 40">
<g id="Group 52">
<g id="Rectangle Copy 3" filter="url(#filter1_d)">
<rect x="40.5" y="10.5" width="578" height="385" rx="26" fill="#777777"/>
</g>
<rect id="Rectangle Copy 5" x="42.5" y="12.5" width="574.23" height="381.865" rx="25" fill="url(#paint0_linear)"/>
<g id="GoViral - Wordpress Theme">
<rect id="Mask Copy" opacity="0.1" x="94.5305" y="26.8029" width="471.463" height="353.756" rx="5" fill="#2A2A2A"/>
<rect id="Mask" x="61.5305" y="29.8029" width="536" height="346" rx="8" fill="#E8EAF6"/>
<mask id="mask0" style="mask-type:alpha" maskUnits="userSpaceOnUse" x="61" y="29" width="537" height="347">
<rect id="Mask_2" x="61.5305" y="29.8029" width="536" height="346" rx="8" fill="white"/>
</mask>
<g mask="url(#mask0)">
<g id="Group 28">
<rect id="Rectangle" x="58" y="30" width="547" height="59" fill="#5267DF"/>
<g id="Group 7">
<circle id="Oval" opacity="0.244768" cx="100" cy="60" r="16" fill="white"/>
<circle id="Oval Copy" opacity="0.104399" cx="561" cy="60" r="16" fill="white"/>
<g id="Group 6">
<rect id="Rectangle_2" opacity="0.75" x="131" y="50" width="120" height="6" rx="3" fill="white"/>
<rect id="Rectangle Copy 6" opacity="0.25" x="131" y="64" width="64" height="6" rx="3" fill="white"/>
</g>
</g>
</g>
<g id="Group 26">
<rect id="Rectangle_3" x="118.53" y="122.803" width="261" height="316" rx="8" fill="white"/>
<rect id="Rectangle Copy 7" x="413.53" y="122.803" width="128" height="316" rx="8" fill="white"/>
<rect id="Rectangle_4" opacity="0.5" x="197" y="161" width="120" height="6" rx="3" fill="#242A45"/>
</g>
</g>
</g>
</g>
</g>
<g id="Group 29">
<circle id="Oval_2" cx="166" cy="171" r="16" fill="#F98E5D"/>
<rect id="Rectangle_5" opacity="0.25" x="434" y="145" width="88" height="6" rx="3" fill="#242A45"/>
<rect id="Rectangle Copy 8" opacity="0.25" x="434" y="165" width="88" height="6" rx="3" fill="#242A45"/>
<rect id="Rectangle Copy 9" opacity="0.25" x="434" y="185" width="88" height="6" rx="3" fill="#242A45"/>
<rect id="Rectangle Copy 10" opacity="0.25" x="434" y="205" width="88" height="6" rx="3" fill="#242A45"/>
<rect id="Rectangle Copy 11" opacity="0.25" x="434" y="239" width="88" height="6" rx="3" fill="#242A45"/>
<rect id="Rectangle Copy 12" opacity="0.25" x="434" y="259" width="88" height="6" rx="3" fill="#242A45"/>
<rect id="Rectangle Copy 13" opacity="0.25" x="434" y="279" width="88" height="6" rx="3" fill="#242A45"/>
<rect id="Rectangle Copy 6_2" opacity="0.25" x="197" y="175" width="64" height="6" rx="3" fill="#242A45"/>
</g>
<g id="Group 29 Copy">
<circle id="Oval_3" cx="166" cy="227" r="16" fill="#6AC6D6"/>
<rect id="Rectangle_6" opacity="0.5" x="197" y="217" width="120" height="6" rx="3" fill="#242A45"/>
<rect id="Rectangle Copy 6_3" opacity="0.25" x="197" y="231" width="64" height="6" rx="3" fill="#242A45"/>
</g>
<g id="Group 29 Copy 2">
<circle id="Oval_4" cx="166" cy="283" r="16" fill="#A47ED4"/>
<rect id="Rectangle_7" opacity="0.5" x="197" y="273" width="120" height="6" rx="3" fill="#242A45"/>
<rect id="Rectangle Copy 6_4" opacity="0.25" x="197" y="287" width="64" height="6" rx="3" fill="#242A45"/>
</g>
<g id="Group 29 Copy 3">
<circle id="Oval_5" cx="166" cy="339" r="16" fill="#EC7878"/>
<rect id="Rectangle_8" opacity="0.5" x="197" y="329" width="120" height="6" rx="3" fill="#242A45"/>
<rect id="Rectangle Copy 6_5" opacity="0.25" x="197" y="343" width="64" height="6" rx="3" fill="#242A45"/>
</g>
</g>
<defs>
<filter id="filter0_d" x="36.5" y="8.5" width="586" height="393" filterUnits="userSpaceOnUse" color-interpolation-filters="sRGB">
<feFlood flood-opacity="0" result="BackgroundImageFix"/>
<feColorMatrix in="SourceAlpha" type="matrix" values="0 0 0 0 0 0 0 0 0 0 0 0 0 0 0 0 0 0 127 0" result="hardAlpha"/>
<feOffset dy="2"/>
<feGaussianBlur stdDeviation="2"/>
<feColorMatrix type="matrix" values="0 0 0 0 0 0 0 0 0 0 0 0 0 0 0 0 0 0 0.5 0"/>
<feBlend mode="normal" in2="BackgroundImageFix" result="effect1_dropShadow"/>
<feBlend mode="normal" in="SourceGraphic" in2="effect1_dropShadow" result="shape"/>
</filter>
<filter id="filter1_d" x="0.5" y="0.5" width="658" height="465" filterUnits="userSpaceOnUse" color-interpolation-filters="sRGB">
<feFlood flood-opacity="0" result="BackgroundImageFix"/>
<feColorMatrix in="SourceAlpha" type="matrix" values="0 0 0 0 0 0 0 0 0 0 0 0 0 0 0 0 0 0 127 0" result="hardAlpha"/>
<feOffset dy="30"/>
<feGaussianBlur stdDeviation="20"/>
<feColorMatrix type="matrix" values="0 0 0 0 0.182433 0 0 0 0 0.230633 0 0 0 0 0.506058 0 0 0 0.20012 0"/>
<feBlend mode="normal" in2="BackgroundImageFix" result="effect1_dropShadow"/>
<feBlend mode="normal" in="SourceGraphic" in2="effect1_dropShadow" result="shape"/>
</filter>
<linearGradient id="paint0_linear" x1="888.042" y1="206.406" x2="548.325" y2="-304.444" gradientUnits="userSpaceOnUse">
<stop stop-color="#151515"/>
<stop offset="1" stop-color="#3D3D3D"/>
</linearGradient>
</defs>
</svg>
